<?xml version="1.0" encoding="UTF-8"?> <svg xmlns="http://www.w3.org/2000/svg" id="Lettre" width="207.54" height="206.016" viewBox="0 0 207.54 206.016"><path id="Tracé_10" data-name="Tracé 10" d="M-3607.238,1014.912a6.112,6.112,0,0,1,2.207,5.082,6.589,6.589,0,0,1-1.213,3.877,6.77,6.77,0,0,1-3.392,2.353v.076a6.583,6.583,0,0,1,3.724,2.3,6.375,6.375,0,0,1,1.253,4.152,6.739,6.739,0,0,1-2.5,5.394,9.969,9.969,0,0,1-6.656,1.892l-9.546-.178.5-27.08,8.824.164Q-3609.506,1013.024-3607.238,1014.912Zm-12.567,22.042,5.553.1q5.9.11,5.983-4.568t-6.3-4.8l-5.059-.095Zm.229-12.285,5.059.094q5.933.111,6.016-4.339a3.971,3.971,0,0,0-1.326-3.335,7.062,7.062,0,0,0-4.373-1.185l-5.211-.1Z" transform="translate(3719.53 -1012.775)" fill="#fff"></path>
<path id="Tracé_11" data-name="Tracé 11" d="M-3220.183,1183.192l-.784,2.9q-1.183-.438-1.256-.458a5.285,5.285,0,0,0-4.523.55,7.275,7.275,0,0,0-2.713,4.35l-2.571,9.511-3.232-.874,5.044-18.655,3.085.834-.774,2.865.073.02a6.233,6.233,0,0,1,6.333-1.559A5.584,5.584,0,0,1-3220.183,1183.192Z" transform="translate(3355.245 -1170.226)" fill="#fff"></path>
<path id="Tracé_12" data-name="Tracé 12" d="M-2995.762,1298.793a7.352,7.352,0,0,1-.815,5.9l-3.42,6.583a22.752,22.752,0,0,0-1.875,4.6l-2.7-1.4a13.274,13.274,0,0,1,1.062-2.621l-.067-.035a6.834,6.834,0,0,1-3.5.881,8.845,8.845,0,0,1-3.93-1.1A6.92,6.92,0,0,1-3014.5,1308a5.2,5.2,0,0,1,.3-4.453,5.039,5.039,0,0,1,3.3-2.765q2.143-.536,6.02.749,2.708.892,5.26,2l.351-.675a4.53,4.53,0,0,0,.549-3.573,4.479,4.479,0,0,0-2.344-2.461,4.556,4.556,0,0,0-3.317-.545,3.849,3.849,0,0,0-2.37,1.92l-2.971-1.544a6.4,6.4,0,0,1,4.064-3.118,8.137,8.137,0,0,1,5.786.992A7.859,7.859,0,0,1-2995.762,1298.793Zm-9.8,5.215a7.994,7.994,0,0,0-3.581-.575,2.6,2.6,0,0,0-1.912,1.493,3.013,3.013,0,0,0-.185,2.626,4.339,4.339,0,0,0,2.17,2.135,6.187,6.187,0,0,0,2.159.672,4.972,4.972,0,0,0,2.087-.18,5.3,5.3,0,0,0,1.948-1.11,8.338,8.338,0,0,0,1.54-2.222l.544-1.046Q-3003.5,1304.652-3005.567,1304.008Z" transform="translate(3148.373 -1276.141)" fill="#fff"></path>
<path id="Tracé_13" data-name="Tracé 13" d="M-2702.466,1495.561q-.038,2.721-2.709,5.587l-8.039,8.628-2.449-2.282,7.857-8.433a6.244,6.244,0,0,0,2.03-3.854,4.21,4.21,0,0,0-1.552-3.188,4.664,4.664,0,0,0-3.693-1.31,6.248,6.248,0,0,0-4.026,2.229l-7.546,8.1-2.449-2.282,13.173-14.139,2.365,2.2-1.737,1.865.056.052a6.5,6.5,0,0,1,3.259.073,7.256,7.256,0,0,1,3.05,1.749A6.627,6.627,0,0,1-2702.466,1495.561Z" transform="translate(2876.329 -1455.666)" fill="#fff"></path>
<path id="Tracé_14" data-name="Tracé 14" d="M-2432.213,1860.144l2.414-1.448-.039-.065a5.774,5.774,0,0,1-3.278-.805,7.214,7.214,0,0,1-2.581-2.6,7.426,7.426,0,0,1-1.126-4.315,7.975,7.975,0,0,1,1.592-4.26,13.426,13.426,0,0,1,4.074-3.6,13.441,13.441,0,0,1,5.092-1.9,7.906,7.906,0,0,1,4.481.593,7.418,7.418,0,0,1,3.252,3.017,7.25,7.25,0,0,1,1.077,3.458,5.786,5.786,0,0,1-.75,3.223l.039.065,8.937-5.364,1.723,2.871-23.224,13.937Zm8.251-15.6a8.916,8.916,0,0,0-5.4,1.507,9,9,0,0,0-3.884,4.062,4.655,4.655,0,0,0,.291,4.439,4.5,4.5,0,0,0,3.706,2.257,9.163,9.163,0,0,0,5.408-1.56,9.069,9.069,0,0,0,3.9-4.029,4.518,4.518,0,0,0-.264-4.323A4.671,4.671,0,0,0-2423.962,1844.545Z" transform="translate(2605.805 -1790.24)" fill="#fff"></path>
<path id="Tracé_15" data-name="Tracé 15" d="M-2261.92,2225.714a6.094,6.094,0,0,1-4.146,3.23l-.891-3.148a3.822,3.822,0,0,0,2.549-1.888,4.539,4.539,0,0,0,.123-3.336,4.562,4.562,0,0,0-1.465-2.451,2.351,2.351,0,0,0-2.2-.426,2.2,2.2,0,0,0-1.334.872,3.146,3.146,0,0,0-.437,1.528q-.056.924.035,2.916a33.549,33.549,0,0,1-.035,4.062,5.831,5.831,0,0,1-1.012,2.778,4.958,4.958,0,0,1-2.891,1.866,5.02,5.02,0,0,1-4.609-.849,8.981,8.981,0,0,1-3.038-4.932,8.947,8.947,0,0,1,.1-6.215,6.5,6.5,0,0,1,4.392-3.478l.922,3.258a4.071,4.071,0,0,0-2.719,2.055,5.053,5.053,0,0,0-.121,3.691,5.213,5.213,0,0,0,1.6,2.71,2.448,2.448,0,0,0,2.324.528,2.518,2.518,0,0,0,1.5-.979,3.625,3.625,0,0,0,.508-1.765q.068-1.087-.021-3.355a29.981,29.981,0,0,1,.042-3.689,5.129,5.129,0,0,1,.925-2.457,4.687,4.687,0,0,1,2.7-1.695,4.887,4.887,0,0,1,4.424.823,8.13,8.13,0,0,1,2.906,4.534A8.224,8.224,0,0,1-2261.92,2225.714Z" transform="translate(2460.255 -2140.615)" fill="#fff"></path>
<path id="Tracé_16" data-name="Tracé 16" d="M-2222.1,2760.708l-2.734-.157a8.27,8.27,0,0,1-.105-2.14,5.351,5.351,0,0,1,1.522-3.933,6.042,6.042,0,0,1,4.324-.989l11.241.647.192-3.342,2.659.153-.193,3.342,4.671.269-.193,3.342-4.671-.27-.221,3.836-2.658-.153.221-3.836-10.9-.628a3.727,3.727,0,0,0-2.427.47,2.554,2.554,0,0,0-.84,2.009A4.356,4.356,0,0,0-2222.1,2760.708Z" transform="translate(2406.933 -2644.157)" fill="#fff"></path>
<path id="Tracé_17" data-name="Tracé 17" d="M-2285.85,2996.632a6.089,6.089,0,0,1,1.357,2.969,7.532,7.532,0,0,1-.219,3.343,6.623,6.623,0,0,1-3.379,4.406q-2.446,1.192-6.208.1l-11.324-3.289.934-3.214,11.069,3.214a6.244,6.244,0,0,0,4.355.076,4.212,4.212,0,0,0,2.147-2.823,4.663,4.663,0,0,0-.5-3.887,6.245,6.245,0,0,0-3.8-2.59l-10.63-3.087.934-3.215,26.01,7.553-.934,3.214-9.791-2.843Z" transform="translate(2482.644 -2867.405)" fill="#fff"></path>
<path id="Tracé_18" data-name="Tracé 18" d="M-2461.621,3362.22a7.353,7.353,0,0,1-5.821-1.261l-6.3-3.909a22.756,22.756,0,0,0-4.442-2.22l1.6-2.585a13.251,13.251,0,0,1,2.533,1.257l.04-.064a6.829,6.829,0,0,1-.612-3.559,8.839,8.839,0,0,1,1.394-3.835,6.918,6.918,0,0,1,3.848-3.208,5.2,5.2,0,0,1,4.417.637,5.038,5.038,0,0,1,2.506,3.5q.371,2.179-1.2,5.946-1.1,2.633-2.4,5.093l.646.4a4.526,4.526,0,0,0,3.521.819,4.476,4.476,0,0,0,2.632-2.15,4.556,4.556,0,0,0,.8-3.267,3.851,3.851,0,0,0-1.733-2.509l1.764-2.844a6.394,6.394,0,0,1,2.8,4.289,8.139,8.139,0,0,1-1.429,5.694A7.859,7.859,0,0,1-2461.621,3362.22Zm-4.456-10.172a8,8,0,0,0,.846-3.527,2.6,2.6,0,0,0-1.344-2.02,3.013,3.013,0,0,0-2.6-.384,4.338,4.338,0,0,0-2.293,2,6.193,6.193,0,0,0-.834,2.1,4.978,4.978,0,0,0,.021,2.095,5.3,5.3,0,0,0,.958,2.027,8.354,8.354,0,0,0,2.1,1.7l1,.622Q-2466.875,3354.059-2466.077,3352.048Z" transform="translate(2644.621 -3199.653)" fill="#fff"></path>
<path id="Tracé_19" data-name="Tracé 19" d="M-2632.063,3654.265l-1.976-1.9a8.284,8.284,0,0,1,1.31-1.695,5.351,5.351,0,0,1,3.712-2,6.043,6.043,0,0,1,3.93,2.058l8.124,7.8,2.318-2.416,1.921,1.844-2.318,2.415,3.376,3.24-2.318,2.416-3.376-3.24-2.66,2.772-1.921-1.844,2.66-2.772-7.877-7.56a3.724,3.724,0,0,0-2.151-1.22,2.55,2.55,0,0,0-1.943.981A4.332,4.332,0,0,0-2632.063,3654.265Z" transform="translate(2790.91 -3486.947)" fill="#fff"></path>
<path id="Tracé_20" data-name="Tracé 20" d="M-3037.618,3894.351a7.356,7.356,0,0,1-4.3-4.125l-3.318-6.634a22.831,22.831,0,0,0-2.62-4.219l2.721-1.361a13.255,13.255,0,0,1,1.5,2.4l.068-.035a6.837,6.837,0,0,1,1.344-3.352,8.852,8.852,0,0,1,3.2-2.535,6.917,6.917,0,0,1,4.959-.715,5.2,5.2,0,0,1,3.429,2.857,5.043,5.043,0,0,1,.3,4.3q-.827,2.049-4.142,4.432-2.313,1.668-4.712,3.08l.341.68a4.527,4.527,0,0,0,2.569,2.543,4.478,4.478,0,0,0,3.368-.451,4.555,4.555,0,0,0,2.39-2.365,3.846,3.846,0,0,0-.162-3.045l2.994-1.5a6.393,6.393,0,0,1,.136,5.121,8.135,8.135,0,0,1-4.2,4.1A7.86,7.86,0,0,1-3037.618,3894.351Zm1.538-11a8,8,0,0,0,2.569-2.561,2.592,2.592,0,0,0-.086-2.423,3.011,3.011,0,0,0-2.016-1.693,4.34,4.34,0,0,0-3,.5,6.178,6.178,0,0,0-1.811,1.353,4.959,4.959,0,0,0-1.08,1.795,5.3,5.3,0,0,0-.247,2.229,8.36,8.36,0,0,0,.894,2.551l.528,1.055Q-3037.814,3884.645-3036.079,3883.352Z" transform="translate(3179.333 -3698.054)" fill="#fff"></path>
<path id="Tracé_21" data-name="Tracé 21" d="M-3244.474,4016.734l-.709-2.92q1.247-.186,1.321-.2a5.286,5.286,0,0,0,3.7-2.66,7.27,7.27,0,0,0,.283-5.119l-2.325-9.574,3.253-.79,4.562,18.778-3.1.754-.7-2.883-.074.018a6.233,6.233,0,0,1-4.8,4.415A5.541,5.541,0,0,1-3244.474,4016.734Z" transform="translate(3364.557 -3812.463)" fill="#fff"></path>
<path id="Tracé_22" data-name="Tracé 22" d="M-3625.263,4041.9a4.393,4.393,0,0,0-1.643,2.732l-3.423.063a7.548,7.548,0,0,1,2.674-4.558,8.856,8.856,0,0,1,5.729-1.913,8.942,8.942,0,0,1,4.892,1.2,8.277,8.277,0,0,1,3.205,3.593,13.073,13.073,0,0,1,1.186,5.495,11.69,11.69,0,0,1-.989,5.136,8.307,8.307,0,0,1-3.053,3.6,8.81,8.81,0,0,1-4.75,1.362,8.443,8.443,0,0,1-5.491-1.686,8.743,8.743,0,0,1-3.077-4.889,18.216,18.216,0,0,1-.458-4.139l14.454-.267a7.909,7.909,0,0,0-1.789-5.142,5.211,5.211,0,0,0-4.083-1.674A5.463,5.463,0,0,0-3625.263,4041.9Zm7.594,12.548a6.748,6.748,0,0,0,1.671-4.273l-11.1.206a6.718,6.718,0,0,0,1.828,4.228,5.1,5.1,0,0,0,3.792,1.414A5.164,5.164,0,0,0-3617.669,4054.448Z" transform="translate(3726.195 -3852.594)" fill="#fff"></path>
<path id="Tracé_23" data-name="Tracé 23" d="M-4193.375,3936.348a4.393,4.393,0,0,0-2.572,1.883l-3.18-1.268a7.543,7.543,0,0,1,4.229-3.167,8.851,8.851,0,0,1,6.022.455,8.953,8.953,0,0,1,4.045,3,8.285,8.285,0,0,1,1.564,4.554,13.093,13.093,0,0,1-1.034,5.525,11.694,11.694,0,0,1-2.9,4.352,8.3,8.3,0,0,1-4.208,2.132,8.813,8.813,0,0,1-4.906-.583,8.436,8.436,0,0,1-4.409-3.681,8.741,8.741,0,0,1-.944-5.7,18.15,18.15,0,0,1,1.182-3.993l13.428,5.35a7.906,7.906,0,0,0,.342-5.433,5.211,5.211,0,0,0-3.116-3.125A5.468,5.468,0,0,0-4193.375,3936.348Zm2.143,14.51a6.757,6.757,0,0,0,3.195-3.293l-10.319-4.11a6.728,6.728,0,0,0,.049,4.605,5.1,5.1,0,0,0,2.949,2.771A5.163,5.163,0,0,0-4191.232,3950.857Z" transform="translate(4262.464 -3754.258)" fill="#fff"></path>
<path id="Tracé_24" data-name="Tracé 24" d="M-4537.958,3726.611a7.357,7.357,0,0,1,1.778-5.684l4.46-5.927a22.851,22.851,0,0,0,2.61-4.225l2.431,1.83a13.3,13.3,0,0,1-1.48,2.409l.061.046a6.843,6.843,0,0,1,3.6-.291,8.844,8.844,0,0,1,3.695,1.733,6.924,6.924,0,0,1,2.85,4.121,5.2,5.2,0,0,1-1.03,4.343,5.04,5.04,0,0,1-3.713,2.181q-2.2.174-5.814-1.733-2.522-1.327-4.856-2.845l-.457.607a4.528,4.528,0,0,0-1.132,3.433,4.48,4.48,0,0,0,1.9,2.814,4.554,4.554,0,0,0,3.183,1.086,3.85,3.85,0,0,0,2.653-1.5l2.675,2.013a6.4,6.4,0,0,1-4.523,2.4,8.14,8.14,0,0,1-5.543-1.934A7.86,7.86,0,0,1-4537.958,3726.611Zm10.532-3.524a7.977,7.977,0,0,0,3.437,1.158,2.592,2.592,0,0,0,2.131-1.157,3.009,3.009,0,0,0,.618-2.559,4.34,4.34,0,0,0-1.788-2.464,6.169,6.169,0,0,0-2.019-1.019,4.951,4.951,0,0,0-2.087-.167,5.3,5.3,0,0,0-2.105.773,8.346,8.346,0,0,0-1.886,1.937l-.709.941Q-4529.356,3722.111-4527.425,3723.087Z" transform="translate(4578.087 -3545.239)" fill="#fff"></path>
<path id="Tracé_25" data-name="Tracé 25" d="M-4810.017,3504.858a6.087,6.087,0,0,1,2.571-4.583l2.04,2.557a3.819,3.819,0,0,0-1.618,2.728,4.536,4.536,0,0,0,1.179,3.123,4.561,4.561,0,0,0,2.3,1.692,2.351,2.351,0,0,0,2.189-.458,2.2,2.2,0,0,0,.894-1.321,3.15,3.15,0,0,0-.189-1.578q-.306-.873-1.161-2.674a33.516,33.516,0,0,1-1.541-3.76,5.836,5.836,0,0,1-.142-2.952,4.956,4.956,0,0,1,1.942-2.841,5.019,5.019,0,0,1,4.578-1,8.979,8.979,0,0,1,4.711,3.37,8.947,8.947,0,0,1,2.317,5.769,6.5,6.5,0,0,1-2.7,4.908l-2.112-2.646a4.072,4.072,0,0,0,1.712-2.948,5.058,5.058,0,0,0-1.318-3.451,5.212,5.212,0,0,0-2.523-1.88,2.446,2.446,0,0,0-2.347.414,2.515,2.515,0,0,0-1.006,1.484,3.626,3.626,0,0,0,.215,1.825q.359,1.027,1.318,3.084a29.76,29.76,0,0,1,1.39,3.418,5.133,5.133,0,0,1,.1,2.624,4.685,4.685,0,0,1-1.836,2.608,4.884,4.884,0,0,1-4.4.955,8.132,8.132,0,0,1-4.436-3.055A8.22,8.22,0,0,1-4810.017,3504.858Z" transform="translate(4833.384 -3341.399)" fill="#fff"></path>
<path id="Tracé_26" data-name="Tracé 26" d="M-5007.514,3275.676a5.787,5.787,0,0,1,2.759,1.39,9.613,9.613,0,0,1,2,2.946,6.156,6.156,0,0,1,.575,1.664l-2.545,1.2a5.081,5.081,0,0,0-.476-1.542,5.034,5.034,0,0,0-1.246-1.747,3.528,3.528,0,0,0-1.779-.738,13.305,13.305,0,0,0-2.943,0l-14.41,14.922-1.543-3.268,11.527-11.583-.032-.069-16.3,1.47-1.511-3.2,21.58-1.605A15.179,15.179,0,0,1-5007.514,3275.676Z" transform="translate(5043.092 -3136.614)" fill="#fff"></path>
<path id="Tracé_27" data-name="Tracé 27" d="M-5170.171,2813.217l2.723-.3a8.242,8.242,0,0,1,.459,2.093,5.355,5.355,0,0,1-.847,4.13,6.046,6.046,0,0,1-4.1,1.694l-11.193,1.229.364,3.327-2.646.291-.365-3.328-4.651.51-.364-3.327,4.651-.51-.421-3.82,2.647-.291.42,3.819,10.852-1.191a3.721,3.721,0,0,0,2.315-.866,2.554,2.554,0,0,0,.5-2.121A4.377,4.377,0,0,0-5170.171,2813.217Z" transform="translate(5190.792 -2702.469)" fill="#fff"></path>
<path id="Tracé_28" data-name="Tracé 28" d="M-5120.419,2451.377a10.713,10.713,0,0,1,7.671-1.688,10.713,10.713,0,0,1,7.161,3.23,8.617,8.617,0,0,1,2.028,6.98,8.553,8.553,0,0,1-3.418,6.395,10.764,10.764,0,0,1-7.67,1.67,10.768,10.768,0,0,1-7.162-3.211,8.555,8.555,0,0,1-2.03-6.962A8.619,8.619,0,0,1-5120.419,2451.377Zm.861,11.027a8.8,8.8,0,0,0,5.272,2.078,8.807,8.807,0,0,0,5.587-.949,4.932,4.932,0,0,0,2.415-3.918,4.974,4.974,0,0,0-1.554-4.369,8.805,8.805,0,0,0-5.272-2.078,8.809,8.809,0,0,0-5.586.949,4.973,4.973,0,0,0-2.419,3.956A4.932,4.932,0,0,0-5119.558,2462.4Z" transform="translate(5128.01 -2361.443)" fill="#fff"></path>
<path id="Tracé_29" data-name="Tracé 29" d="M-5072.362,2004.08l-24.517-11.512,1.422-3.03,24.517,11.512Z" transform="translate(5102.642 -1929.609)" fill="#fff"></path>
<path id="Tracé_30" data-name="Tracé 30" d="M-4831.918,1718.577a10.713,10.713,0,0,1,7.445,2.5,10.709,10.709,0,0,1,4.475,6.456,8.618,8.618,0,0,1-1.855,7.028,8.559,8.559,0,0,1-6.225,3.722,10.766,10.766,0,0,1-7.434-2.519,10.77,10.77,0,0,1-4.486-6.441,8.553,8.553,0,0,1,1.846-7.013A8.616,8.616,0,0,1-4831.918,1718.577Zm-4.941,9.9a8.813,8.813,0,0,0,3.45,4.5,8.808,8.808,0,0,0,5.278,2.064,4.931,4.931,0,0,0,4.087-2.115,4.971,4.971,0,0,0,.919-4.545,8.8,8.8,0,0,0-3.45-4.5,8.806,8.806,0,0,0-5.277-2.064,4.975,4.975,0,0,0-4.111,2.145A4.937,4.937,0,0,0-4836.859,1728.473Z" transform="translate(4861.668 -1675.239)" fill="#fff"></path>
<path id="Tracé_31" data-name="Tracé 31" d="M-4615.479,1421.436-4633,1410.7l2.8-2.23,7.194,4.625q4.619,2.984,7.562,4.965l.059-.047q-1.846-4.755-3.191-8.452l-2.882-8.066,2.8-2.23,6.58,19.471Z" transform="translate(4667.227 -1375.547)" fill="#fff"></path><path id="Tracé_32" data-name="Tracé 32" d="M-4244.708,1274.789a4.395,4.395,0,0,0,.437-3.157l3.122-1.4a7.547,7.547,0,0,1-.667,5.242,8.845,8.845,0,0,1-4.515,4.011,8.949,8.949,0,0,1-4.972.817,8.275,8.275,0,0,1-4.359-2.043,13.086,13.086,0,0,1-3.251-4.586,11.7,11.7,0,0,1-1.109-5.111,8.314,8.314,0,0,1,1.393-4.506,8.809,8.809,0,0,1,3.832-3.12,8.441,8.441,0,0,1,5.712-.608,8.745,8.745,0,0,1,4.751,3.285,18.129,18.129,0,0,1,2.048,3.626l-13.184,5.928a7.905,7.905,0,0,0,3.666,4.024,5.208,5.208,0,0,0,4.413-.065A5.462,5.462,0,0,0-4244.708,1274.789Zm-11.916-8.552a6.755,6.755,0,0,0,.144,4.586l10.131-4.555a6.722,6.722,0,0,0-3.344-3.168,5.1,5.1,0,0,0-4.043.192A5.162,5.162,0,0,0-4256.624,1266.237Z" transform="translate(4317.132 -1244.899)" fill="#fff"></path></svg> 